# Blender v2.91.0 OBJ File: ''
# www.blender.org
o Cube
v 5.118803 -1.416190 -2.345889
v 5.080593 -0.437166 -0.600863
v 1.189335 -2.460636 -1.845959
v 1.151125 -1.481611 -0.100933
v 5.755984 -3.300681 -1.274668
v 5.717773 -2.321657 0.470358
v 1.826516 -4.345126 -0.774738
v 1.788306 -3.366102 0.970288
vt 0.625000 0.500000
vt 0.875000 0.500000
vt 0.875000 0.750000
vt 0.625000 0.750000
vt 0.375000 0.750000
vt 0.625000 1.000000
vt 0.375000 1.000000
vt 0.375000 0.000000
vt 0.625000 0.000000
vt 0.625000 0.250000
vt 0.375000 0.250000
vt 0.125000 0.500000
vt 0.375000 0.500000
vt 0.125000 0.750000
vn 0.0191 -0.4892 -0.8720
vn -0.9592 -0.2550 0.1220
vn 0.2820 -0.8341 0.4741
vn -0.0191 0.4892 0.8720
vn -0.2820 0.8341 -0.4741
vn 0.9592 0.2550 -0.1220
s off
f 1/1/1 5/2/1 7/3/1 3/4/1
f 4/5/2 3/4/2 7/6/2 8/7/2
f 8/8/3 7/9/3 5/10/3 6/11/3
f 6/12/4 2/13/4 4/5/4 8/14/4
f 2/13/5 1/1/5 3/4/5 4/5/5
f 6/11/6 5/10/6 1/1/6 2/13/6
